<mxfile host="app.diagrams.net" modified="2022-05-23T08:21:58.280Z" agent="5.0 (Macintosh; Intel Mac OS X 10_15_7) AppleWebKit/605.1.15 (KHTML, like Gecko) Version/15.5 Safari/605.1.15" etag="CJ3bB9gO5Q7BjKr1fRu5" version="18.0.7" type="github">
  <diagram id="KF2vij12AyjrFLbN272b" name="Page-1">
    <mxGraphModel dx="2149" dy="2611" grid="1" gridSize="10" guides="1" tooltips="1" connect="1" arrows="1" fold="1" page="1" pageScale="1" pageWidth="850" pageHeight="1100" math="0" shadow="0">
      <root>
        <mxCell id="0" />
        <mxCell id="1" parent="0" />
        <mxCell id="bmwknH1iQYQyOoWRzVaC-7" value="" style="group" parent="1" vertex="1" connectable="0">
          <mxGeometry x="236" y="320" width="270" height="171" as="geometry" />
        </mxCell>
        <mxCell id="bmwknH1iQYQyOoWRzVaC-1" value="" style="rounded=0;whiteSpace=wrap;html=1;" parent="bmwknH1iQYQyOoWRzVaC-7" vertex="1">
          <mxGeometry y="1" width="270" height="170" as="geometry" />
        </mxCell>
        <mxCell id="bmwknH1iQYQyOoWRzVaC-2" value="MySQL 实例节点1" style="rounded=0;whiteSpace=wrap;html=1;" parent="bmwknH1iQYQyOoWRzVaC-7" vertex="1">
          <mxGeometry x="10" y="31" width="120" height="60" as="geometry" />
        </mxCell>
        <mxCell id="bmwknH1iQYQyOoWRzVaC-3" value="Pod 1" style="text;html=1;strokeColor=none;fillColor=none;align=center;verticalAlign=middle;whiteSpace=wrap;rounded=0;" parent="bmwknH1iQYQyOoWRzVaC-7" vertex="1">
          <mxGeometry x="107" width="60" height="30" as="geometry" />
        </mxCell>
        <mxCell id="bmwknH1iQYQyOoWRzVaC-5" value="中间件exporter" style="rounded=0;whiteSpace=wrap;html=1;" parent="bmwknH1iQYQyOoWRzVaC-7" vertex="1">
          <mxGeometry x="140" y="31" width="120" height="60" as="geometry" />
        </mxCell>
        <mxCell id="bmwknH1iQYQyOoWRzVaC-6" value="agent" style="rounded=0;whiteSpace=wrap;html=1;" parent="bmwknH1iQYQyOoWRzVaC-7" vertex="1">
          <mxGeometry x="10" y="101" width="250" height="60" as="geometry" />
        </mxCell>
        <mxCell id="bmwknH1iQYQyOoWRzVaC-9" value="" style="group" parent="1" vertex="1" connectable="0">
          <mxGeometry x="519" y="320" width="270" height="171" as="geometry" />
        </mxCell>
        <mxCell id="bmwknH1iQYQyOoWRzVaC-10" value="" style="rounded=0;whiteSpace=wrap;html=1;" parent="bmwknH1iQYQyOoWRzVaC-9" vertex="1">
          <mxGeometry y="1" width="270" height="170" as="geometry" />
        </mxCell>
        <mxCell id="bmwknH1iQYQyOoWRzVaC-11" value="MySQL 实例节点2" style="rounded=0;whiteSpace=wrap;html=1;" parent="bmwknH1iQYQyOoWRzVaC-9" vertex="1">
          <mxGeometry x="10" y="31" width="120" height="60" as="geometry" />
        </mxCell>
        <mxCell id="bmwknH1iQYQyOoWRzVaC-12" value="Pod 2" style="text;html=1;strokeColor=none;fillColor=none;align=center;verticalAlign=middle;whiteSpace=wrap;rounded=0;" parent="bmwknH1iQYQyOoWRzVaC-9" vertex="1">
          <mxGeometry x="107" width="60" height="30" as="geometry" />
        </mxCell>
        <mxCell id="bmwknH1iQYQyOoWRzVaC-13" value="中间件exporter" style="rounded=0;whiteSpace=wrap;html=1;" parent="bmwknH1iQYQyOoWRzVaC-9" vertex="1">
          <mxGeometry x="140" y="31" width="120" height="60" as="geometry" />
        </mxCell>
        <mxCell id="bmwknH1iQYQyOoWRzVaC-14" value="agent" style="rounded=0;whiteSpace=wrap;html=1;" parent="bmwknH1iQYQyOoWRzVaC-9" vertex="1">
          <mxGeometry x="10" y="101" width="250" height="60" as="geometry" />
        </mxCell>
        <mxCell id="bmwknH1iQYQyOoWRzVaC-15" value="" style="group" parent="1" vertex="1" connectable="0">
          <mxGeometry x="799" y="320" width="270" height="171" as="geometry" />
        </mxCell>
        <mxCell id="bmwknH1iQYQyOoWRzVaC-16" value="" style="rounded=0;whiteSpace=wrap;html=1;" parent="bmwknH1iQYQyOoWRzVaC-15" vertex="1">
          <mxGeometry y="1" width="270" height="170" as="geometry" />
        </mxCell>
        <mxCell id="bmwknH1iQYQyOoWRzVaC-17" value="MySQL 实例节点3" style="rounded=0;whiteSpace=wrap;html=1;" parent="bmwknH1iQYQyOoWRzVaC-15" vertex="1">
          <mxGeometry x="10" y="31" width="120" height="60" as="geometry" />
        </mxCell>
        <mxCell id="bmwknH1iQYQyOoWRzVaC-18" value="Pod 3" style="text;html=1;strokeColor=none;fillColor=none;align=center;verticalAlign=middle;whiteSpace=wrap;rounded=0;" parent="bmwknH1iQYQyOoWRzVaC-15" vertex="1">
          <mxGeometry x="107" width="60" height="30" as="geometry" />
        </mxCell>
        <mxCell id="bmwknH1iQYQyOoWRzVaC-19" value="中间件exporter" style="rounded=0;whiteSpace=wrap;html=1;" parent="bmwknH1iQYQyOoWRzVaC-15" vertex="1">
          <mxGeometry x="140" y="31" width="120" height="60" as="geometry" />
        </mxCell>
        <mxCell id="bmwknH1iQYQyOoWRzVaC-20" value="agent" style="rounded=0;whiteSpace=wrap;html=1;" parent="bmwknH1iQYQyOoWRzVaC-15" vertex="1">
          <mxGeometry x="10" y="101" width="250" height="60" as="geometry" />
        </mxCell>
        <mxCell id="bmwknH1iQYQyOoWRzVaC-27" value="" style="group" parent="1" vertex="1" connectable="0">
          <mxGeometry x="499" y="10" width="310" height="170" as="geometry" />
        </mxCell>
        <mxCell id="bmwknH1iQYQyOoWRzVaC-23" value="" style="rounded=0;whiteSpace=wrap;html=1;" parent="bmwknH1iQYQyOoWRzVaC-27" vertex="1">
          <mxGeometry width="310" height="170" as="geometry" />
        </mxCell>
        <mxCell id="bmwknH1iQYQyOoWRzVaC-21" value="operator controllers" style="rounded=0;whiteSpace=wrap;html=1;" parent="bmwknH1iQYQyOoWRzVaC-27" vertex="1">
          <mxGeometry x="10" y="100" width="140" height="60" as="geometry" />
        </mxCell>
        <mxCell id="bmwknH1iQYQyOoWRzVaC-24" value="Orchestrator" style="rounded=0;whiteSpace=wrap;html=1;" parent="bmwknH1iQYQyOoWRzVaC-27" vertex="1">
          <mxGeometry x="160" y="100" width="140" height="60" as="geometry" />
        </mxCell>
        <mxCell id="bmwknH1iQYQyOoWRzVaC-25" value="MySQL Manager" style="rounded=0;whiteSpace=wrap;html=1;" parent="bmwknH1iQYQyOoWRzVaC-27" vertex="1">
          <mxGeometry x="10" y="35" width="290" height="60" as="geometry" />
        </mxCell>
        <mxCell id="bmwknH1iQYQyOoWRzVaC-26" value="MySQL Operator" style="text;html=1;strokeColor=none;fillColor=none;align=center;verticalAlign=middle;whiteSpace=wrap;rounded=0;" parent="bmwknH1iQYQyOoWRzVaC-27" vertex="1">
          <mxGeometry x="72.5" y="5" width="165" height="30" as="geometry" />
        </mxCell>
        <mxCell id="2x-ZPeIkUXKnLRk0frOs-1" value="" style="group" vertex="1" connectable="0" parent="1">
          <mxGeometry x="990" y="-170" width="310" height="170" as="geometry" />
        </mxCell>
        <mxCell id="2x-ZPeIkUXKnLRk0frOs-2" value="" style="rounded=0;whiteSpace=wrap;html=1;" vertex="1" parent="2x-ZPeIkUXKnLRk0frOs-1">
          <mxGeometry width="310" height="170" as="geometry" />
        </mxCell>
        <mxCell id="2x-ZPeIkUXKnLRk0frOs-4" value="..." style="rounded=0;whiteSpace=wrap;html=1;" vertex="1" parent="2x-ZPeIkUXKnLRk0frOs-1">
          <mxGeometry x="10" y="100" width="290" height="60" as="geometry" />
        </mxCell>
        <mxCell id="2x-ZPeIkUXKnLRk0frOs-5" value="Backend Server" style="rounded=0;whiteSpace=wrap;html=1;" vertex="1" parent="2x-ZPeIkUXKnLRk0frOs-1">
          <mxGeometry x="10" y="35" width="290" height="60" as="geometry" />
        </mxCell>
        <mxCell id="2x-ZPeIkUXKnLRk0frOs-6" value="PAAS &amp;nbsp;Backend" style="text;html=1;strokeColor=none;fillColor=none;align=center;verticalAlign=middle;whiteSpace=wrap;rounded=0;" vertex="1" parent="2x-ZPeIkUXKnLRk0frOs-1">
          <mxGeometry x="92.5" y="5" width="125" height="30" as="geometry" />
        </mxCell>
        <mxCell id="2x-ZPeIkUXKnLRk0frOs-7" value="" style="group" vertex="1" connectable="0" parent="1">
          <mxGeometry x="1490" y="10" width="310" height="170" as="geometry" />
        </mxCell>
        <mxCell id="2x-ZPeIkUXKnLRk0frOs-8" value="" style="rounded=0;whiteSpace=wrap;html=1;" vertex="1" parent="2x-ZPeIkUXKnLRk0frOs-7">
          <mxGeometry width="310" height="170" as="geometry" />
        </mxCell>
        <mxCell id="2x-ZPeIkUXKnLRk0frOs-9" value="operator controllers" style="rounded=0;whiteSpace=wrap;html=1;" vertex="1" parent="2x-ZPeIkUXKnLRk0frOs-7">
          <mxGeometry x="10" y="100" width="140" height="60" as="geometry" />
        </mxCell>
        <mxCell id="2x-ZPeIkUXKnLRk0frOs-10" value="...." style="rounded=0;whiteSpace=wrap;html=1;" vertex="1" parent="2x-ZPeIkUXKnLRk0frOs-7">
          <mxGeometry x="160" y="100" width="140" height="60" as="geometry" />
        </mxCell>
        <mxCell id="2x-ZPeIkUXKnLRk0frOs-11" value="Redis Manager" style="rounded=0;whiteSpace=wrap;html=1;" vertex="1" parent="2x-ZPeIkUXKnLRk0frOs-7">
          <mxGeometry x="10" y="35" width="290" height="60" as="geometry" />
        </mxCell>
        <mxCell id="2x-ZPeIkUXKnLRk0frOs-12" value="Redis Operator" style="text;html=1;strokeColor=none;fillColor=none;align=center;verticalAlign=middle;whiteSpace=wrap;rounded=0;" vertex="1" parent="2x-ZPeIkUXKnLRk0frOs-7">
          <mxGeometry x="97.5" y="5" width="115" height="30" as="geometry" />
        </mxCell>
        <mxCell id="2x-ZPeIkUXKnLRk0frOs-13" value="" style="group" vertex="1" connectable="0" parent="1">
          <mxGeometry x="1230" y="320" width="270" height="171" as="geometry" />
        </mxCell>
        <mxCell id="2x-ZPeIkUXKnLRk0frOs-14" value="" style="rounded=0;whiteSpace=wrap;html=1;" vertex="1" parent="2x-ZPeIkUXKnLRk0frOs-13">
          <mxGeometry y="1" width="270" height="170" as="geometry" />
        </mxCell>
        <mxCell id="2x-ZPeIkUXKnLRk0frOs-15" value="Redis实例节点1" style="rounded=0;whiteSpace=wrap;html=1;" vertex="1" parent="2x-ZPeIkUXKnLRk0frOs-13">
          <mxGeometry x="10" y="31" width="120" height="60" as="geometry" />
        </mxCell>
        <mxCell id="2x-ZPeIkUXKnLRk0frOs-16" value="Pod 1" style="text;html=1;strokeColor=none;fillColor=none;align=center;verticalAlign=middle;whiteSpace=wrap;rounded=0;" vertex="1" parent="2x-ZPeIkUXKnLRk0frOs-13">
          <mxGeometry x="107" width="60" height="30" as="geometry" />
        </mxCell>
        <mxCell id="2x-ZPeIkUXKnLRk0frOs-17" value="中间件exporter" style="rounded=0;whiteSpace=wrap;html=1;" vertex="1" parent="2x-ZPeIkUXKnLRk0frOs-13">
          <mxGeometry x="140" y="31" width="120" height="60" as="geometry" />
        </mxCell>
        <mxCell id="2x-ZPeIkUXKnLRk0frOs-18" value="agent" style="rounded=0;whiteSpace=wrap;html=1;" vertex="1" parent="2x-ZPeIkUXKnLRk0frOs-13">
          <mxGeometry x="10" y="101" width="250" height="60" as="geometry" />
        </mxCell>
        <mxCell id="2x-ZPeIkUXKnLRk0frOs-19" value="" style="group" vertex="1" connectable="0" parent="1">
          <mxGeometry x="1511" y="320" width="270" height="171" as="geometry" />
        </mxCell>
        <mxCell id="2x-ZPeIkUXKnLRk0frOs-20" value="" style="rounded=0;whiteSpace=wrap;html=1;" vertex="1" parent="2x-ZPeIkUXKnLRk0frOs-19">
          <mxGeometry y="1" width="270" height="170" as="geometry" />
        </mxCell>
        <mxCell id="2x-ZPeIkUXKnLRk0frOs-21" value="Redis实例节点1" style="rounded=0;whiteSpace=wrap;html=1;" vertex="1" parent="2x-ZPeIkUXKnLRk0frOs-19">
          <mxGeometry x="10" y="31" width="120" height="60" as="geometry" />
        </mxCell>
        <mxCell id="2x-ZPeIkUXKnLRk0frOs-22" value="Pod 2" style="text;html=1;strokeColor=none;fillColor=none;align=center;verticalAlign=middle;whiteSpace=wrap;rounded=0;" vertex="1" parent="2x-ZPeIkUXKnLRk0frOs-19">
          <mxGeometry x="107" width="60" height="30" as="geometry" />
        </mxCell>
        <mxCell id="2x-ZPeIkUXKnLRk0frOs-23" value="中间件exporter" style="rounded=0;whiteSpace=wrap;html=1;" vertex="1" parent="2x-ZPeIkUXKnLRk0frOs-19">
          <mxGeometry x="140" y="31" width="120" height="60" as="geometry" />
        </mxCell>
        <mxCell id="2x-ZPeIkUXKnLRk0frOs-24" value="agent" style="rounded=0;whiteSpace=wrap;html=1;" vertex="1" parent="2x-ZPeIkUXKnLRk0frOs-19">
          <mxGeometry x="10" y="101" width="250" height="60" as="geometry" />
        </mxCell>
        <mxCell id="2x-ZPeIkUXKnLRk0frOs-25" value="" style="group" vertex="1" connectable="0" parent="1">
          <mxGeometry x="1810" y="320" width="270" height="171" as="geometry" />
        </mxCell>
        <mxCell id="2x-ZPeIkUXKnLRk0frOs-26" value="" style="rounded=0;whiteSpace=wrap;html=1;" vertex="1" parent="2x-ZPeIkUXKnLRk0frOs-25">
          <mxGeometry y="1" width="270" height="170" as="geometry" />
        </mxCell>
        <mxCell id="2x-ZPeIkUXKnLRk0frOs-27" value="Redis 实例节点1" style="rounded=0;whiteSpace=wrap;html=1;" vertex="1" parent="2x-ZPeIkUXKnLRk0frOs-25">
          <mxGeometry x="10" y="31" width="120" height="60" as="geometry" />
        </mxCell>
        <mxCell id="2x-ZPeIkUXKnLRk0frOs-28" value="Pod 3" style="text;html=1;strokeColor=none;fillColor=none;align=center;verticalAlign=middle;whiteSpace=wrap;rounded=0;" vertex="1" parent="2x-ZPeIkUXKnLRk0frOs-25">
          <mxGeometry x="107" width="60" height="30" as="geometry" />
        </mxCell>
        <mxCell id="2x-ZPeIkUXKnLRk0frOs-29" value="中间件exporter" style="rounded=0;whiteSpace=wrap;html=1;" vertex="1" parent="2x-ZPeIkUXKnLRk0frOs-25">
          <mxGeometry x="140" y="31" width="120" height="60" as="geometry" />
        </mxCell>
        <mxCell id="2x-ZPeIkUXKnLRk0frOs-30" value="agent" style="rounded=0;whiteSpace=wrap;html=1;" vertex="1" parent="2x-ZPeIkUXKnLRk0frOs-25">
          <mxGeometry x="10" y="101" width="250" height="60" as="geometry" />
        </mxCell>
        <mxCell id="2x-ZPeIkUXKnLRk0frOs-3" value="CMDB" style="rounded=0;whiteSpace=wrap;html=1;" vertex="1" parent="1">
          <mxGeometry x="990" y="10" width="310" height="40" as="geometry" />
        </mxCell>
        <mxCell id="2x-ZPeIkUXKnLRk0frOs-37" style="edgeStyle=orthogonalEdgeStyle;rounded=0;orthogonalLoop=1;jettySize=auto;html=1;entryX=0.5;entryY=0;entryDx=0;entryDy=0;" edge="1" parent="1" source="2x-ZPeIkUXKnLRk0frOs-2" target="bmwknH1iQYQyOoWRzVaC-23">
          <mxGeometry relative="1" as="geometry" />
        </mxCell>
        <mxCell id="2x-ZPeIkUXKnLRk0frOs-38" style="edgeStyle=orthogonalEdgeStyle;rounded=0;orthogonalLoop=1;jettySize=auto;html=1;exitX=1;exitY=0.5;exitDx=0;exitDy=0;" edge="1" parent="1" source="2x-ZPeIkUXKnLRk0frOs-2" target="2x-ZPeIkUXKnLRk0frOs-8">
          <mxGeometry relative="1" as="geometry" />
        </mxCell>
        <mxCell id="2x-ZPeIkUXKnLRk0frOs-39" style="edgeStyle=orthogonalEdgeStyle;rounded=0;orthogonalLoop=1;jettySize=auto;html=1;" edge="1" parent="1" source="bmwknH1iQYQyOoWRzVaC-23" target="bmwknH1iQYQyOoWRzVaC-1">
          <mxGeometry relative="1" as="geometry" />
        </mxCell>
        <mxCell id="2x-ZPeIkUXKnLRk0frOs-40" style="edgeStyle=orthogonalEdgeStyle;rounded=0;orthogonalLoop=1;jettySize=auto;html=1;exitX=0.5;exitY=1;exitDx=0;exitDy=0;" edge="1" parent="1" source="bmwknH1iQYQyOoWRzVaC-23" target="bmwknH1iQYQyOoWRzVaC-10">
          <mxGeometry relative="1" as="geometry" />
        </mxCell>
        <mxCell id="2x-ZPeIkUXKnLRk0frOs-41" style="edgeStyle=orthogonalEdgeStyle;rounded=0;orthogonalLoop=1;jettySize=auto;html=1;exitX=0.5;exitY=1;exitDx=0;exitDy=0;" edge="1" parent="1" source="bmwknH1iQYQyOoWRzVaC-23" target="bmwknH1iQYQyOoWRzVaC-16">
          <mxGeometry relative="1" as="geometry" />
        </mxCell>
        <mxCell id="2x-ZPeIkUXKnLRk0frOs-42" style="edgeStyle=orthogonalEdgeStyle;rounded=0;orthogonalLoop=1;jettySize=auto;html=1;exitX=0.5;exitY=1;exitDx=0;exitDy=0;" edge="1" parent="1" source="2x-ZPeIkUXKnLRk0frOs-8" target="2x-ZPeIkUXKnLRk0frOs-14">
          <mxGeometry relative="1" as="geometry" />
        </mxCell>
        <mxCell id="2x-ZPeIkUXKnLRk0frOs-43" style="edgeStyle=orthogonalEdgeStyle;rounded=0;orthogonalLoop=1;jettySize=auto;html=1;exitX=0.5;exitY=1;exitDx=0;exitDy=0;" edge="1" parent="1" source="2x-ZPeIkUXKnLRk0frOs-8" target="2x-ZPeIkUXKnLRk0frOs-20">
          <mxGeometry relative="1" as="geometry" />
        </mxCell>
        <mxCell id="2x-ZPeIkUXKnLRk0frOs-44" style="edgeStyle=orthogonalEdgeStyle;rounded=0;orthogonalLoop=1;jettySize=auto;html=1;entryX=0.5;entryY=0;entryDx=0;entryDy=0;" edge="1" parent="1" target="2x-ZPeIkUXKnLRk0frOs-28">
          <mxGeometry relative="1" as="geometry">
            <mxPoint x="1645" y="180" as="sourcePoint" />
            <Array as="points">
              <mxPoint x="1645" y="250" />
              <mxPoint x="1947" y="250" />
            </Array>
          </mxGeometry>
        </mxCell>
      </root>
    </mxGraphModel>
  </diagram>
</mxfile>
